# xmcd
#
# Track frame offsets:
#   150
#   16613
#   41266
#   56902
#   75073
#   108265
#   120622
#   137592
#   158320
#   176513
#   195585
#   216938
#   234921
#
# Disc length: 3367 seconds
#
# Revision: 0
# Processed by: cddbd v1.5.2PL0 Copyright (c) Steve Scherf et al.
# Submitted via: GXTranscoder 2.0.1939
#
DISCID=8f0d250d
DTITLE=Varios - HipHopMix
DYEAR=1900
DGENRE=Hip Hop
TTITLE0=Brooklyn Zoo
TTITLE1=Snakes
TTITLE2=Baby C'mon
TTITLE3=Proteck Ya Neck 2 (The Zoo)
TTITLE4=Brooklyn Zoo 2 (Tiger Crane)
TTITLE5=Dirty Dancin'
TTITLE6=Is It Me
TTITLE7=4:20
TTITLE8=How High Part 2 (Dirty)
TTITLE9=Without Me
TTITLE10=He Got Game
TTITLE11=Just a lit´bit
TTITLE12=How We Do
EXTD=
EXTT0=
EXTT1=
EXTT2=
EXTT3=
EXTT4=
EXTT5=
EXTT6=
EXTT7=
EXTT8=
EXTT9=
EXTT10=
EXTT11=
EXTT12=
PLAYORDER=
